<svg xmlns="http://www.w3.org/2000/svg" width="54" height="40" fill="none" xmlns:v="https://vecta.io/nano"><path d="M54 6.592v19.781c0 3.642-3.627 6.595-8.1 6.595h-1.789L31.063 19.382c-.303-.282-.651-.525-1.033-.72-2.247-1.163-5.422-.851-7.093.72L9.889 32.962H8.1c-4.474 0-8.1-2.953-8.1-6.595V6.592C0 2.95 3.627 0 8.1 0h37.8C50.373 0 54 2.95 54 6.592z" fill="#191736"/><path d="M40.131 40H13.869c-1.812 0-3.27-1.018-3.27-2.269.009-.464.204-.91.553-1.262l13.13-13.672c1.125-1.047 3.27-1.262 4.768-.482a3.13 3.13 0 0 1 .697.482l13.13 13.672c1.004 1.047.599 2.459-.909 3.157a4.39 4.39 0 0 1-1.834.374h0z" fill="#1e2479"/></svg>