<svg xmlns="http://www.w3.org/2000/svg" width="24" height="24" fill="#181729" xmlns:v="https://vecta.io/nano"><path opacity=".4" d="M10.75 2.45c.7-.59 1.83-.59 2.51 0l1.58 1.35c.3.25.87.46 1.27.46h1.7a1.94 1.94 0 0 1 1.93 1.93v1.7a2.28 2.28 0 0 0 .46 1.26l1.35 1.58c.59.7.59 1.83 0 2.51l-1.35 1.58a2.28 2.28 0 0 0-.46 1.26v1.7a1.94 1.94 0 0 1-1.93 1.93h-1.7a2.28 2.28 0 0 0-1.26.46l-1.58 1.35c-.7.59-1.83.59-2.51 0l-1.58-1.35a2.31 2.31 0 0 0-1.26-.46H6.17a1.94 1.94 0 0 1-1.93-1.93v-1.71a2.24 2.24 0 0 0-.45-1.25l-1.35-1.59c-.58-.69-.58-1.81 0-2.5l1.35-1.59c.25-.3.45-.86.45-1.25V6.2a1.94 1.94 0 0 1 1.93-1.93H7.9a2.28 2.28 0 0 0 1.26-.46l1.59-1.36z"/><path d="M12 16.87c-.55 0-1-.45-1-1s.44-1 1-1c.55 0 1 .45 1 1s-.44 1-1 1zm0-3.15c-.41 0-.75-.34-.75-.75V8.13c0-.41.34-.75.75-.75s.75.34.75.75v4.83a.75.75 0 0 1-.75.76z"/></svg>