<svg xmlns="http://www.w3.org/2000/svg" width="24" height="24" fill="#181729" xmlns:v="https://vecta.io/nano"><path opacity=".4" d="M13 3.25H7C3.58 3.25 2.25 4.58 2.25 8v8c0 2.3 1.25 4.75 4.75 4.75h6c3.42 0 4.75-1.33 4.75-4.75V8c0-3.42-1.33-4.75-4.75-4.75z"/><path d="M11.5 11.38a1.88 1.88 0 1 0 0-3.76 1.88 1.88 0 1 0 0 3.76zm10.15-5.21c-.41-.21-1.27-.45-2.44.37l-1.48 1.04.02.42v8l-.02.42 1.48 1.04c.62.44 1.16.58 1.59.58a1.83 1.83 0 0 0 .85-.2c.41-.21 1.1-.78 1.1-2.21V8.38c0-1.43-.69-2-1.1-2.21z"/></svg>