<svg xmlns="http://www.w3.org/2000/svg" width="20" height="20" fill="none" xmlns:v="https://vecta.io/nano"><path d="M7.628 4.507C8.683 2.613 9.211 1.667 10 1.667s1.317.947 2.372 2.84l.273.49c.3.538.45.807.684.985s.525.243 1.108.375l.53.12c2.05.464 3.075.696 3.318 1.48s-.455 1.601-1.852 3.235l-.361.423c-.397.464-.596.697-.685.984s-.059.597.001 1.217l.055.564c.211 2.18.317 3.27-.322 3.755s-1.598.043-3.517-.841l-.496-.229c-.545-.251-.818-.377-1.107-.377s-.562.125-1.107.377l-.497.229c-1.919.884-2.879 1.325-3.517.841s-.533-1.575-.321-3.755l.055-.564c.06-.62.09-.929.001-1.216s-.288-.519-.685-.984l-.362-.423C2.169 9.558 1.471 8.741 1.715 7.956s1.269-1.016 3.318-1.48l.53-.12c.582-.132.874-.198 1.108-.375s.384-.447.684-.985l.273-.49z" fill="#ffb800"/></svg>